<svg xmlns="http://www.w3.org/2000/svg" viewBox="0 0 64 64">
  <defs>
    <linearGradient id="g" x1="0" y1="0" x2="1" y2="1">
      <stop offset="0" stop-color="#D2546A"/>
      <stop offset="1" stop-color="#532D3A"/>
    </linearGradient>
  </defs>
  <rect width="64" height="64" rx="14" fill="url(#g)"/>
  <path d="M32 14c-10.5 0-19 7.4-19 16.6 0 5.2 2.7 9.8 7 12.8-.3 2.4-1.2 4.6-2.8 6.4-.5.6 0 1.5.8 1.4 3.6-.4 6.8-1.7 9.3-3.4 1.5.3 3.1.5 4.7.5 10.5 0 19-7.4 19-16.7S42.5 14 32 14z" fill="#F2EDE8"/>
  <circle cx="24" cy="31" r="2.6" fill="#D2546A"/>
  <circle cx="32" cy="31" r="2.6" fill="#D9A441"/>
  <circle cx="40" cy="31" r="2.6" fill="#F0A0B0"/>
</svg>
